<svg xmlns="http://www.w3.org/2000/svg" xmlns:xlink="http://www.w3.org/1999/xlink" version="1.1" width="1080" height="1080" viewBox="0 0 1080 1080" xml:space="preserve">
<defs>
</defs>
<g transform="matrix(1 0 0 1 540 540)" id="9cd82cea-435e-438f-b802-1b6fec4ad1c7">
<rect style="stroke: none; stroke-width: 1; stroke-dasharray: none; stroke-linecap: butt; stroke-dashoffset: 0; stroke-linejoin: miter; stroke-miterlimit: 4; fill: rgb(255,255,255); fill-rule: nonzero; opacity: 1; visibility: hidden;" vector-effect="non-scaling-stroke" x="-540" y="-540" rx="0" ry="0" width="1080" height="1080"/>
</g>
<g transform="matrix(1 0 0 1 540 540)" id="6e3c27c5-8861-44d9-9aac-bae5b1a47cea">
</g>
<g transform="matrix(4.22 0 0 4.22 540 540)">
<g style="">
  <g transform="matrix(1 0 0 1 0 0)">
<rect style="stroke: none; stroke-width: 1; stroke-dasharray: none; stroke-linecap: butt; stroke-dashoffset: 0; stroke-linejoin: miter; stroke-miterlimit: 4; fill: none; fill-rule: nonzero; opacity: 1;" vector-effect="non-scaling-stroke" x="-128" y="-128" rx="0" ry="0" width="256" height="256"/>
</g>
  <g transform="matrix(1 0 0 1 0 -4)">
<path style="stroke: rgb(0,0,0); stroke-width: 8; stroke-dasharray: none; stroke-linecap: round; stroke-dashoffset: 0; stroke-linejoin: round; stroke-miterlimit: 4; fill: rgb(255,255,255); fill-rule: nonzero; opacity: 1;" vector-effect="non-scaling-stroke" transform=" translate(-128, -124)" d="M 216 216 L 186.7 192 L 157.29999999999998 216 L 128 192 L 98.7 216 L 69.3 192 L 40 216 L 40 120 C 40 71.39894201489017 79.39894201489017 32 128 32 C 176.60105798510983 32 216 71.39894201489015 216 119.99999999999997 Z" stroke-linecap="round"/>
</g>
  <g transform="matrix(1 0 0 1 -28 -12)">
<circle style="stroke: none; stroke-width: 1; stroke-dasharray: none; stroke-linecap: butt; stroke-dashoffset: 0; stroke-linejoin: miter; stroke-miterlimit: 4; fill: rgb(0,0,0); fill-rule: nonzero; opacity: 1;" vector-effect="non-scaling-stroke" cx="0" cy="0" r="8"/>
</g>
  <g transform="matrix(1 0 0 1 28 -12)">
<circle style="stroke: none; stroke-width: 1; stroke-dasharray: none; stroke-linecap: butt; stroke-dashoffset: 0; stroke-linejoin: miter; stroke-miterlimit: 4; fill: rgb(0,0,0); fill-rule: nonzero; opacity: 1;" vector-effect="non-scaling-stroke" cx="0" cy="0" r="8"/>
</g>
</g>
</g>
</svg>